# xmcd CD database file
# Copyright (C) 1993-1998 Ti Kan
#
# Track frame offsets:
#  187
#  21717
#  38200
#  54837
#  74700
#  105560
#  123717
#  136535
#
# Disc length: 2048 seconds
#
# Revision: 1
# Processed by: cddbd v1.4b41PL1 Copyright (c) Steve Scherf et al.
# Submitted via: CDWizzard Release:4.35
#
DISCID=7107fe08
DTITLE=Viktor Lazlo - Canoe Rose
DYEAR=1900
DGENRE=
TTITLE0=CANOE ROSE
TTITLE1=BLUESER
TTITLE2=MATA HARI
TTITLE3=SLOW MOTION
TTITLE4=LOSER
TTITLE5=SHANGHAI LILY
TTITLE6=PUT THE BLAME ON MAME
TTITLE7=PLEURER DES RIVIERES
EXTD=
EXTT0=
EXTT1=
EXTT2=
EXTT3=
EXTT4=
EXTT5=
EXTT6=
EXTT7=
PLAYORDER=
